# xmcd
#
# Track frame offsets: 
#        150
#        21575
#        43005
#        69273
#        88618
#        120358
#        139010
#        157339
#        183278
#        207058
#        225307
#        239687
#        263100
#        280545
#
# Disc length: 3998 seconds
#
# Revision: 0
# Processed by: cddbd v1.5.2PL0 Copyright (c) Steve Scherf et al.
# Submitted via: ExactAudioCopyFreeDBPlugin 1.0
#
DISCID=bc0f9c0e
DTITLE=Tran Thu Ha - Tran Tien
DYEAR=1900
DGENRE=
TTITLE0=Ra ngo tung kinh
TTITLE1=Ngau hung pho
TTITLE2=Nhang nho
TTITLE3=Pho nui
TTITLE4=Lien khuc chi toi
TTITLE5=Mot minh
TTITLE6=Doa hoa xanh
TTITLE7=Diep khuc tinh yeu
TTITLE8=Doc huyen cam
TTITLE9=Hoa toa
TTITLE10=Mat troi be con
TTITLE11=Vat doi sao doi
TTITLE12=Den trang
TTITLE13=Ra ngo tung kinh
EXTD=
EXTT0=
EXTT1=
EXTT2=
EXTT3=
EXTT4=
EXTT5=
EXTT6=
EXTT7=
EXTT8=
EXTT9=
EXTT10=
EXTT11=
EXTT12=
EXTT13=
PLAYORDER=
